<?xml version="1.0" encoding="UTF-8" standalone="no"?>
<!-- Created with Inkscape (http://www.inkscape.org/) -->

<svg
   width="1023.9999"
   height="1024"
   viewBox="0 0 270.93333 270.93334"
   version="1.1"
   id="svg5"
   xmlns="http://www.w3.org/2000/svg"
   xmlns:svg="http://www.w3.org/2000/svg">
  <defs
     id="defs2" />
  <g
     id="layer1"
     transform="translate(-56.025248,-11.270036)">
    <circle
       style="fill:#669900;stroke-width:0.264583"
       id="path603"
       cx="204.04599"
       cy="256.69531"
       r="24.55109" />
    <path
       style="fill:#669900;stroke-width:0.264583"
       d="m 182.62508,220.37411 c 5.32094,1.36293 16.50532,1.36293 23.03445,1.32295 6.52913,-0.04 8.4015,-0.11977 10.06487,-0.20241 1.66338,-0.0826 3.11065,-0.16778 4.70372,-0.10099 1.59306,0.0668 3.32825,0.28551 5.08143,0.25845 1.75317,-0.0271 3.53348,-0.30094 4.02802,-2.89026 0.49454,-2.58932 -0.28977,-7.53802 -1.13052,-11.00956 -0.84076,-3.47154 -1.74436,-5.50043 -2.33343,-6.92612 -0.58906,-1.42569 -0.86049,-2.24001 -1.54477,-3.19813 -0.68427,-0.95813 -1.77736,-2.05122 -2.45581,-2.86527 -0.67845,-0.81405 -0.95123,-1.35963 -1.48236,-3.23898 -0.53113,-1.87935 -1.31136,-5.05809 -1.83941,-8.83503 -0.52805,-3.77695 -0.80083,-8.14159 -0.93731,-11.82433 -0.13648,-3.68275 -0.13648,-6.68344 0.40886,-9.13944 0.54534,-2.456 1.63652,-4.36552 2.45565,-5.45737 0.81914,-1.09185 1.3647,-1.36465 2.18233,-2.31884 0.81763,-0.9542 1.9088,-2.59094 4.90965,-6.13744 3.00084,-3.54651 7.91108,-9.0023 10.91155,-13.22988 3.00047,-4.22757 4.09159,-7.22826 5.04646,-9.27472 0.95486,-2.04645 1.77326,-3.13761 2.59154,-4.91016 0.81828,-1.77255 1.63668,-4.22766 2.72784,-6.95575 1.09116,-2.72809 2.45512,-5.72878 3.95546,-9.68404 1.50035,-3.955254 3.13707,-8.865468 3.9557,-13.775155 0.81863,-4.909686 0.81863,-9.819905 0.81863,-16.366863 0,-6.546959 0,-14.730656 -0.27217,-19.504204 -0.27216,-4.773548 -0.81778,-6.137501 -2.99991,-10.502152 -2.18213,-4.364651 -6.00114,-11.729975 -8.31914,-15.685996 -2.31799,-3.95602 -3.13639,-4.50161 -3.95498,-5.183279 -0.8186,-0.681668 -1.63699,-1.500031 -2.59151,-2.046543 -0.95452,-0.546512 -2.04564,-0.819306 -2.86424,-1.227555 -0.81859,-0.40825 -1.36421,-0.953832 -2.1826,-1.227944 -0.81839,-0.274112 -1.90956,-0.274112 -3.27333,-0.410258 -1.36377,-0.136146 -3.0005,-0.408939 -5.59194,-0.954414 -2.59143,-0.545476 -6.13767,-1.363848 -14.04864,-2.591561 -7.91096,-1.227714 -20.1865,-2.864449 -28.77998,-3.001284 -8.59348,-0.136835 -13.50372,1.227113 -16.64102,2.181851 -3.13731,0.954738 -4.50126,1.500316 -6.54669,1.909657 -2.04543,0.40934 -4.77333,0.682133 -7.3654,1.363952 -2.59207,0.681819 -5.04719,1.772976 -6.95718,2.864276 -1.90998,1.0913 -3.27393,2.182457 -4.36445,2.864297 -1.09051,0.68184 -1.90885,0.954634 -3.29051,1.773181 -1.38166,0.818546 -3.32532,2.182499 -4.68941,3.137361 -1.36409,0.954863 -2.14688,1.499431 -3.22153,2.318168 -1.07464,0.818737 -2.43859,1.909901 -3.52913,2.591739 -1.09054,0.681838 -1.90893,0.954623 -2.5917,1.364069 -0.68277,0.409447 -1.22832,0.955027 -1.90951,1.363948 -0.68118,0.40892 -1.49957,0.681712 -2.59164,1.636873 -1.09208,0.955161 -2.45603,2.591904 -3.13789,4.366233 -0.68187,1.774328 -0.68187,3.683857 0.88482,7.021383 1.5667,3.337526 4.70442,8.112297 7.05972,11.4916 2.3553,3.379304 3.92096,5.353413 7.2652,5.284989 3.34423,-0.06842 8.45902,-2.182543 12.65882,-4.444956 4.1998,-2.262414 7.48055,-4.668815 9.80953,-6.268853 2.32897,-1.600039 3.69291,-2.384314 5.67947,-3.256493 1.98655,-0.872178 4.60517,-1.836167 6.95117,-3.000495 2.346,-1.164328 4.42363,-2.530705 6.10942,-3.5884 1.6858,-1.057695 2.98157,-1.80787 5.813,-2.592446 2.83142,-0.784577 7.19605,-1.602948 12.24305,-1.739009 5.047,-0.136062 10.77558,0.409524 14.18518,1.365607 3.40959,0.956082 4.50077,2.320033 5.1829,3.000554 0.68214,0.680521 0.95492,0.680521 1.22652,2.318683 0.2716,1.638163 0.54443,4.911641 1.0905,7.639713 0.54606,2.728071 1.3644,4.910389 1.77297,6.546856 0.40857,1.636467 0.40857,2.727622 0.81888,3.818938 0.41031,1.091317 1.2287,2.182473 1.63678,3.409867 0.40809,1.227395 0.40809,2.591344 0.81786,4.364751 0.40976,1.773407 1.2281,3.955728 1.63667,7.501726 0.40857,3.545998 0.40857,8.456217 -1.36464,12.956029 -1.7732,4.499811 -5.31944,8.591659 -7.22912,10.910809 -1.90969,2.31914 -2.18246,2.86472 -3.81896,4.63733 -1.63649,1.7726 -4.63722,4.77327 -6.40984,6.40974 -1.77262,1.63647 -2.31817,1.90926 -3.13685,2.45496 -0.81868,0.54569 -1.90985,1.36406 -3.13763,2.45539 -1.22777,1.09132 -2.59172,2.45527 -3.40876,3.13725 -0.81704,0.68197 -1.08982,0.68197 -1.49978,0.81809 -0.40996,0.13613 -0.95552,0.40891 -2.04709,1.22743 -1.09157,0.81852 -2.72835,2.18247 -3.85376,4.60359 -1.12541,2.42113 -1.73839,5.89477 -2.18226,8.31902 -0.44386,2.42425 -0.71618,3.78589 -1.26195,5.01379 -0.54577,1.22791 -1.3603,2.31392 -1.77127,3.13597 -0.41097,0.82206 -0.41097,1.36478 -0.68401,2.18378 -0.27304,0.81901 -0.81776,1.90848 -1.09069,4.22883 -0.27294,2.32035 -0.27294,5.85981 -0.27294,8.59111 0,2.7313 0,4.6364 0.30723,8.08408 0.30723,3.44769 0.91499,8.37734 1.10912,12.47534 0.19413,4.098 -0.0322,7.21049 0.0949,9.81739 0.12703,2.6069 0.60789,4.65669 1.02634,6.41218 0.41845,1.7555 0.77225,3.20728 1.12637,4.66034 0.0572,0.85903 0.11428,1.71703 0.0123,2.60301 -0.10196,0.88599 -0.36215,1.79444 -0.5582,2.81157 -0.19606,1.01713 -0.32728,2.13996 -0.39284,3.11148 -0.0656,0.97153 -0.0656,1.78991 -0.33854,3.56274 -0.27298,1.77283 -0.81854,4.50073 4.50239,5.86366 z"
       id="path742" />
  </g>
</svg>
